<!DOCTYPE svg PUBLIC "-//W3C//DTD SVG 20010904//EN" "http://www.w3.org/TR/2001/REC-SVG-20010904/DTD/svg10.dtd">
<svg version="1.0" xmlns="http://www.w3.org/2000/svg" width="450px" height="106px" viewBox="0 0 4500 1060" preserveAspectRatio="xMidYMid meet">
<g id="layer101" fill="#030303" stroke="none">
 <path d="M700 990 c-172 -32 -303 -144 -362 -309 -28 -77 -28 -215 0 -292 70 -195 233 -311 437 -311 204 0 367 116 437 311 28 77 28 215 0 292 -49 139 -153 243 -287 289 -65 22 -165 31 -225 20z"/>
 <path d="M2733 986 c-23 -7 -56 -24 -73 -37 -105 -80 -130 -116 -164 -231 -21 -70 -37 -81 -108 -70 l-53 7 -12 50 c-7 28 -20 69 -28 91 -14 37 -20 43 -53 47 -20 3 -49 9 -64 12 -39 10 -46 -16 -23 -79 10 -28 22 -71 26 -96 21 -119 53 -244 67 -264 13 -18 14 -69 0 -94 -10 -19 -9 -25 4 -38 14 -14 44 -16 190 -16 214 1 240 8 286 76 59 89 32 167 -78 224 -36 19 -67 36 -69 38 -3 2 5 11 18 20 29 21 63 76 90 148 20 54 69 125 88 127 5 1 17 5 28 9 47 18 102 20 153 7 44 -12 54 -12 59 -1 8 20 -6 35 -54 56 -58 25 -174 33 -230 14z m-186 -464 c24 -13 53 -55 53 -77 0 -9 -7 -29 -15 -45 -13 -24 -21 -29 -67 -32 -84 -6 -99 1 -118 58 -32 94 -33 102 -8 106 43 7 135 0 155 -10z"/>
 <path d="M1850 860 c0 -12 8 -32 17 -47 l17 -26 -39 21 c-63 33 -226 55 -239 33 -3 -5 -26 -14 -50 -20 -36 -9 -55 -23 -98 -73 -46 -54 -57 -74 -72 -140 -23 -92 -19 -125 29 -223 54 -112 127 -186 240 -241 110 -53 159 -61 292 -44 68 8 111 9 135 2 43 -12 63 -2 54 26 -11 33 -83 64 -153 68 -59 3 -167 35 -232 69 -44 22 -99 112 -135 220 -20 61 -20 95 -2 139 20 48 57 60 162 51 l85 -7 29 -46 c46 -73 39 -102 -27 -117 -23 -4 -33 -12 -33 -25 0 -23 19 -30 110 -40 41 -4 89 -13 106 -20 41 -18 82 -6 90 25 9 35 -14 117 -58 212 -21 46 -38 88 -38 94 0 21 -50 98 -71 109 -11 6 -28 8 -39 5 -10 -3 -21 -1 -25 5 -3 5 -17 10 -31 10 -17 0 -24 -5 -24 -20z"/>
 <path d="M2878 842 c-1 -4 -22 -22 -45 -40 -51 -40 -99 -128 -81 -149 8 -10 22 -13 45 -8 l33 6 -24 -36 c-29 -43 -24 -64 15 -72 26 -5 27 -7 13 -18 -24 -17 -11 -44 26 -51 l30 -6 -21 -30 c-20 -28 -20 -30 -4 -49 10 -10 27 -19 38 -19 20 0 20 0 -1 -22 -32 -35 -44 -74 -27 -88 23 -19 62 -3 110 44 47 47 90 120 80 136 -3 6 -25 10 -48 10 -23 0 -37 4 -30 8 6 4 19 21 27 37 19 36 6 55 -38 55 l-31 1 28 15 c28 15 28 16 11 35 -9 10 -28 19 -40 19 l-24 0 20 32 c21 35 14 62 -20 73 -20 6 -20 7 -2 33 28 40 34 63 21 78 -12 15 -55 19 -61 6z"/>
 <path d="M3098 830 c-14 -11 -33 -20 -41 -20 -20 0 -47 -33 -47 -57 0 -22 75 -179 90 -188 4 -3 6 -14 3 -24 -4 -17 11 -70 50 -174 9 -27 25 -37 121 -76 39 -16 46 -7 80 94 15 44 41 104 57 134 16 30 29 64 29 75 0 12 9 27 19 33 22 14 23 12 37 -57 3 -19 13 -45 21 -57 8 -12 12 -31 9 -41 -4 -11 5 -51 19 -89 14 -39 25 -80 25 -92 0 -28 52 -81 78 -81 28 0 72 38 72 62 0 11 -6 32 -14 46 -21 43 -37 92 -52 165 -7 38 -22 83 -34 101 -11 19 -20 49 -20 68 0 55 -29 138 -57 164 -29 27 -93 33 -111 11 -6 -7 -23 -44 -39 -82 -15 -39 -37 -79 -48 -91 -11 -11 -33 -43 -49 -70 l-29 -49 -28 60 c-15 33 -28 71 -29 85 -1 14 -11 57 -24 95 -26 79 -44 90 -88 55z"/>
 <path d="M3864 385 c-4 -8 -3 -23 1 -32 4 -10 11 -34 15 -54 7 -36 6 -37 -28 -42 -19 -4 -47 -3 -63 0 -31 6 -36 -4 -19 -38 9 -16 22 -19 74 -19 l63 0 13 -57 c18 -79 27 -93 55 -93 30 0 31 13 8 86 -9 30 -15 56 -12 58 5 5 117 9 204 7 60 -1 61 -2 73 -34 7 -18 12 -41 12 -50 0 -33 23 -67 46 -67 13 0 25 4 28 9 5 8 -9 60 -25 93 -21 41 -12 48 56 48 48 0 65 4 65 13 0 29 -36 47 -93 47 -57 0 -57 0 -57 30 0 16 -7 48 -16 70 -12 31 -22 40 -39 40 -34 0 -38 -13 -19 -75 9 -31 13 -59 10 -62 -3 -4 -33 -6 -66 -6 -47 0 -60 -3 -56 -14 7 -17 -2 -17 -20 2 -10 10 -35 15 -68 15 l-53 0 -12 58 c-6 32 -17 64 -23 70 -17 17 -48 15 -54 -3z"/>
 </g>
<g id="layer102" fill="#413e15" stroke="none">
 <path d="M700 990 c-172 -32 -303 -144 -362 -309 -28 -77 -28 -215 0 -292 70 -195 233 -311 437 -311 204 0 367 116 437 311 28 77 28 215 0 292 -49 139 -153 243 -287 289 -65 22 -165 31 -225 20z m160 -120 c105 -24 185 -87 236 -187 46 -92 30 -109 -71 -74 -58 20 -64 35 -17 39 17 2 32 8 32 13 0 22 -96 103 -155 130 -52 23 -73 28 -126 25 -105 -6 -179 -55 -248 -163 -18 -29 -37 -53 -41 -53 -5 0 -16 -3 -26 -7 -15 -5 -16 -2 -10 33 4 21 19 55 32 76 95 138 242 201 394 168z m-314 -415 c22 -60 22 -60 33 -32 6 16 11 32 11 37 0 4 8 11 17 14 19 8 52 -28 53 -56 0 -10 5 -18 10 -18 6 0 10 6 10 13 0 6 11 26 25 42 l24 30 2 -30 c1 -16 1 -39 0 -50 -3 -34 -45 -135 -56 -135 -16 0 -35 22 -35 40 -1 8 -7 29 -14 45 l-13 30 -18 -55 c-9 -30 -21 -59 -25 -63 -23 -26 -99 177 -85 230 10 41 36 23 61 -42z m464 5 c0 -9 5 -21 11 -27 12 -12 32 -141 24 -162 -9 -22 -52 24 -59 65 -7 36 -26 47 -26 16 0 -11 -9 -27 -20 -37 -19 -17 -21 -17 -39 -1 -10 9 -21 31 -25 47 -6 33 -26 31 -26 -3 0 -22 -26 -58 -42 -58 -25 0 7 137 49 209 8 13 43 -37 48 -70 4 -21 10 -39 14 -39 4 0 16 27 26 60 l18 60 24 -22 c12 -12 23 -29 23 -38z"/>
 <path d="M2798 993 c18 -2 45 -2 60 0 15 2 0 4 -33 4 -33 0 -45 -2 -27 -4z"/>
 <path d="M2999 948 c7 -10 11 -25 7 -33 -3 -9 -2 -13 4 -10 15 10 12 31 -7 46 -16 13 -17 12 -4 -3z"/>
 <path d="M2595 899 c-20 -18 -40 -41 -46 -53 -6 -11 1 -7 15 11 15 17 39 41 54 52 15 11 24 21 20 21 -4 0 -23 -14 -43 -31z"/>
 <path d="M2723 858 c-18 -22 -33 -48 -32 -57 0 -10 4 -7 10 9 6 14 22 37 36 52 15 15 25 30 22 32 -2 2 -19 -14 -36 -36z"/>
 <path d="M2144 847 c-3 -9 -4 -24 -1 -34 3 -11 5 -7 6 11 1 26 3 28 29 21 15 -3 45 -8 67 -10 l40 -4 -40 9 c-22 5 -52 12 -67 16 -20 4 -29 2 -34 -9z"/>
 <path d="M1590 834 c-34 -19 -10 -18 26 1 16 8 22 14 14 14 -8 -1 -26 -7 -40 -15z"/>
 <path d="M2860 824 c-13 -13 -19 -24 -13 -24 6 0 19 -3 28 -7 14 -5 16 -2 11 15 -6 17 -3 20 17 18 13 -2 29 -6 35 -10 16 -9 15 7 0 22 -19 19 -51 13 -78 -14z"/>
 <path d="M3135 843 c11 -3 24 -10 28 -17 6 -7 7 -6 4 4 -2 8 -14 16 -28 17 -19 1 -20 1 -4 -4z"/>
 <path d="M3090 825 c-7 -8 -20 -15 -30 -15 -27 0 -52 -35 -47 -67 l4 -28 2 31 c1 34 17 54 41 54 9 0 25 9 35 20 10 11 16 20 13 20 -3 0 -11 -7 -18 -15z"/>
 <path d="M1773 823 c9 -2 25 -2 35 0 9 3 1 5 -18 5 -19 0 -27 -2 -17 -5z"/>
 <path d="M1455 745 c-31 -35 -55 -70 -52 -77 4 -10 6 -10 6 1 1 8 26 42 57 77 31 35 53 64 51 64 -3 0 -31 -29 -62 -65z"/>
 <path d="M2806 781 c-17 -19 -17 -19 0 -17 9 2 18 10 20 19 3 21 1 21 -20 -2z"/>
 <path d="M3571 760 c0 -8 4 -24 9 -35 5 -13 9 -14 9 -5 0 8 -4 24 -9 35 -5 13 -9 14 -9 5z"/>
 <path d="M2897 742 c-21 -23 -22 -42 -1 -42 9 0 12 5 8 13 -6 8 -3 8 9 -1 9 -8 22 -12 29 -9 8 3 2 10 -14 17 -22 10 -25 16 -17 27 17 20 5 16 -14 -5z"/>
 <path d="M2646 697 c-11 -18 -28 -43 -40 -57 -17 -20 -18 -22 -2 -10 21 16 70 90 64 96 -2 2 -12 -11 -22 -29z"/>
 <path d="M3202 690 c0 -19 2 -27 5 -17 2 9 2 25 0 35 -3 9 -5 1 -5 -18z"/>
 <path d="M3593 665 c0 -22 2 -30 4 -17 2 12 2 30 0 40 -3 9 -5 -1 -4 -23z"/>
 <path d="M1698 683 c12 -2 30 -2 40 0 9 3 -1 5 -23 4 -22 0 -30 -2 -17 -4z"/>
 <path d="M1625 655 c-14 -13 -25 -32 -25 -42 1 -12 5 -9 13 10 7 16 23 35 37 42 14 8 19 14 12 15 -7 0 -24 -11 -37 -25z"/>
 <path d="M1798 673 c12 -2 30 -2 40 0 9 3 -1 5 -23 4 -22 0 -30 -2 -17 -4z"/>
 <path d="M2480 671 c0 -6 -15 -18 -32 -26 -18 -8 -26 -14 -17 -15 22 0 66 36 57 46 -5 4 -8 2 -8 -5z"/>
 <path d="M1887 625 c15 -24 29 -42 31 -40 4 4 -46 85 -53 85 -2 0 8 -20 22 -45z"/>
 <path d="M2750 655 c14 -17 39 -19 60 -4 12 8 10 9 -7 4 -16 -4 -23 -2 -23 7 0 10 -3 9 -10 -2 -6 -10 -10 -11 -10 -2 0 6 -5 12 -11 12 -8 0 -8 -5 1 -15z"/>
 <path d="M2339 647 c5 -5 24 -7 42 -5 33 3 33 4 -8 8 -23 3 -39 2 -34 -3z"/>
 <path d="M2815 632 c-12 -17 -13 -22 -4 -15 9 7 18 11 21 8 3 -3 13 4 23 15 18 19 17 20 -1 20 -10 0 -28 -13 -39 -28z"/>
 <path d="M3458 639 c-10 -10 -14 -19 -9 -19 6 0 13 5 17 11 4 8 9 7 15 -2 6 -10 9 -8 9 9 0 26 -9 27 -32 1z"/>
 <path d="M2917 632 c-24 -26 -21 -30 15 -26 33 4 62 -12 51 -29 -4 -6 -1 -7 6 -3 19 12 -17 46 -47 46 -21 0 -22 2 -12 15 18 21 6 19 -13 -3z"/>
 <path d="M3220 622 c0 -19 39 -92 49 -92 5 0 12 7 15 16 5 14 4 15 -7 5 -12 -9 -18 -2 -35 36 -12 27 -21 42 -22 35z"/>
 <path d="M2202 580 c0 -19 2 -27 5 -17 2 9 2 25 0 35 -3 9 -5 1 -5 -18z"/>
 <path d="M2630 576 c0 -3 14 -12 30 -21 17 -9 30 -13 30 -11 0 3 -13 12 -30 21 -16 9 -30 13 -30 11z"/>
 <path d="M2786 566 c3 -8 15 -18 27 -22 33 -10 107 -10 107 0 0 6 5 5 12 -2 14 -14 48 -16 48 -3 0 14 -34 19 -84 14 -25 -3 -53 -2 -63 2 -10 5 -20 9 -23 9 -3 1 -11 5 -17 9 -9 6 -11 3 -7 -7z"/>
 <path d="M1373 525 c0 -27 2 -38 4 -22 2 15 2 37 0 50 -2 12 -4 0 -4 -28z"/>
 <path d="M1921 554 c-1 -24 -16 -39 -46 -47 -19 -4 -19 -5 1 -6 27 -1 57 32 51 56 -4 15 -5 15 -6 -3z"/>
 <path d="M3410 538 c-11 -18 -20 -37 -20 -42 0 -12 1 -10 28 37 26 45 19 50 -8 5z"/>
 <path d="M2453 533 c9 -2 25 -2 35 0 9 3 1 5 -18 5 -19 0 -27 -2 -17 -5z"/>
 <path d="M2545 522 c45 -28 62 -65 47 -105 -10 -29 -10 -30 3 -13 8 11 15 30 15 42 0 25 -60 94 -81 94 -8 0 0 -8 16 -18z"/>
 <path d="M2824 517 c-4 -11 -1 -23 6 -30 10 -10 11 -7 7 13 -6 24 -6 24 5 -2 11 -26 53 -44 64 -26 3 4 10 6 15 3 5 -4 9 -2 9 4 0 6 -15 7 -35 4 -19 -3 -35 -1 -35 4 0 5 -6 18 -14 29 -14 18 -15 18 -22 1z"/>
 <path d="M2226 480 c8 -43 14 -51 14 -19 0 13 -5 31 -10 39 -7 11 -8 5 -4 -20z"/>
 <path d="M2131 478 c0 -14 -4 -35 -7 -45 -5 -17 -5 -17 6 0 6 10 9 30 7 45 l-4 27 -2 -27z"/>
 <path d="M2752 432 c-1 -18 -9 -46 -17 -62 -9 -17 -13 -30 -11 -30 14 0 37 65 33 93 l-4 32 -1 -33z"/>
 <path d="M2963 447 c-6 -10 15 -27 32 -27 6 0 3 5 -5 10 -13 8 -13 10 2 10 9 0 20 -5 24 -11 4 -8 9 -7 14 2 7 10 12 10 26 -2 15 -12 17 -12 12 1 -5 17 -96 32 -105 17z"/>
 <path d="M1918 443 c18 -2 45 -2 60 0 15 2 0 4 -33 4 -33 0 -45 -2 -27 -4z"/>
 <path d="M2030 426 c14 -8 39 -15 55 -14 29 0 29 0 -5 8 -19 4 -44 10 -55 14 -13 5 -11 2 5 -8z"/>
 <path d="M1400 416 c0 -11 40 -86 45 -86 3 0 -4 19 -16 43 -23 45 -29 54 -29 43z"/>
 <path d="M2850 413 c0 -15 34 -43 54 -43 9 0 14 -5 11 -10 -4 -6 3 -9 17 -7 28 5 26 22 -2 23 -11 1 -26 7 -35 14 -8 7 -15 9 -15 4 0 -5 -7 0 -15 10 -8 11 -15 15 -15 9z"/>
 <path d="M3140 396 c0 -11 30 -66 36 -66 2 0 -3 15 -12 33 -19 36 -24 44 -24 33z"/>
 <path d="M3676 375 c8 -37 14 -45 14 -19 0 10 -5 26 -10 34 -8 11 -9 7 -4 -15z"/>
 <path d="M3864 385 c-4 -8 -3 -23 1 -32 4 -10 11 -34 15 -54 7 -36 6 -37 -28 -42 -19 -4 -47 -3 -63 0 -31 6 -36 -4 -19 -38 9 -16 22 -19 74 -19 l63 0 13 -57 c16 -70 27 -93 43 -93 9 0 9 2 -1 8 -7 5 -20 40 -30 78 l-18 69 -64 3 c-56 3 -79 12 -80 32 0 3 27 6 61 7 33 0 62 3 64 5 3 3 -4 43 -21 111 -5 23 -3 27 15 27 24 0 36 -23 46 -93 l7 -47 55 0 c40 0 62 -6 80 -20 l26 -20 -73 0 -73 0 7 -32 c10 -57 35 -134 35 -114 1 11 -7 43 -16 72 -9 30 -15 56 -12 58 5 5 117 9 204 7 60 -1 61 -2 73 -34 7 -18 12 -41 12 -50 0 -26 22 -67 37 -67 9 0 6 7 -7 20 -11 11 -20 31 -20 44 0 13 -7 40 -15 60 -15 36 -16 36 -75 36 -46 0 -61 4 -69 18 -8 16 -3 17 51 19 33 0 62 4 65 7 5 4 -7 63 -23 119 -4 12 0 17 15 17 24 0 39 -25 51 -83 6 -31 8 -35 9 -15 1 15 -6 46 -15 68 -12 31 -22 40 -39 40 -34 0 -38 -13 -19 -75 9 -31 13 -59 10 -62 -3 -4 -33 -6 -66 -6 -47 0 -60 -3 -56 -14 7 -17 -2 -17 -20 2 -10 10 -35 15 -68 15 l-53 0 -12 58 c-6 32 -17 64 -23 70 -17 17 -48 15 -54 -3z"/>
 <path d="M2525 370 l-50 -7 47 -1 c26 -1 50 3 53 8 3 6 5 9 3 8 -2 0 -25 -4 -53 -8z"/>
 <path d="M1689 312 c5 -10 18 -25 27 -33 11 -9 9 -2 -6 19 -26 35 -36 42 -21 14z"/>
 <path d="M2244 315 c-7 -17 12 -45 29 -45 6 0 2 6 -8 14 -11 8 -16 19 -12 30 4 9 4 16 1 16 -2 0 -7 -7 -10 -15z"/>
 <path d="M2681 304 c-19 -13 -29 -24 -23 -24 6 0 24 11 39 25 35 31 28 31 -16 -1z"/>
 <path d="M2962 294 c-42 -33 -62 -37 -92 -20 -11 7 -11 4 2 -9 22 -24 54 -15 103 29 51 45 43 45 -13 0z"/>
 <path d="M3214 315 c36 -19 45 -19 20 0 -10 8 -26 14 -34 15 -8 0 -2 -7 14 -15z"/>
 <path d="M3699 313 c16 -31 14 -53 -6 -77 -18 -21 -18 -21 5 -2 26 22 28 54 6 82 -15 18 -15 18 -5 -3z"/>
 <path d="M3316 305 c-4 -11 -13 -14 -28 -10 -21 5 -21 5 -4 -6 14 -9 21 -8 34 5 9 8 13 18 10 21 -3 3 -8 -1 -12 -10z"/>
 <path d="M2877 293 c4 -11 8 -12 13 -3 6 9 9 9 13 1 4 -8 5 -8 3 0 -1 7 -9 13 -18 15 -11 1 -15 -3 -11 -13z"/>
 <path d="M1515 240 c27 -27 51 -50 54 -50 3 0 -17 23 -44 50 -27 28 -51 50 -54 50 -3 0 17 -22 44 -50z"/>
 <path d="M2493 273 c26 -2 68 -2 95 0 26 2 4 3 -48 3 -52 0 -74 -1 -47 -3z"/>
 <path d="M3608 233 c13 -13 33 -23 45 -22 18 1 17 2 -7 9 -15 5 -36 15 -45 22 -9 7 -6 3 7 -9z"/>
 <path d="M4335 253 c37 -3 67 -11 80 -21 20 -17 20 -17 1 6 -16 19 -28 22 -80 20 l-61 -2 60 -3z"/>
 <path d="M4293 194 c-3 -8 -1 -25 5 -37 6 -12 13 -29 15 -37 4 -9 6 -7 6 7 1 12 -3 25 -9 28 -5 3 -10 15 -10 25 0 17 9 20 68 23 l67 3 -68 2 c-53 2 -69 -1 -74 -14z"/>
 <path d="M1923 193 c9 -2 25 -2 35 0 9 3 1 5 -18 5 -19 0 -27 -2 -17 -5z"/>
 <path d="M2114 144 c9 -8 16 -23 17 -32 0 -10 3 -12 5 -5 7 15 -13 53 -27 53 -6 0 -3 -7 5 -16z"/>
 <path d="M1938 103 c12 -2 30 -2 40 0 9 3 -1 5 -23 4 -22 0 -30 -2 -17 -4z"/>
 <path d="M1807 93 c18 -2 50 -2 70 0 21 2 7 4 -32 4 -38 0 -55 -2 -38 -4z"/>
 </g>
<g id="layer103" fill="#6e6b69" stroke="none">
 <path d="M700 990 c-172 -32 -303 -144 -362 -309 -28 -77 -28 -215 0 -292 70 -195 233 -311 437 -311 204 0 367 116 437 311 28 77 28 215 0 292 -49 139 -153 243 -287 289 -65 22 -165 31 -225 20z m230 -141 c93 -44 190 -164 190 -234 0 -22 -4 -25 -32 -25 -41 0 -122 36 -113 50 3 5 14 10 24 10 28 0 32 11 13 42 -61 103 -231 151 -350 99 -51 -23 -152 -118 -152 -144 0 -20 -43 -57 -67 -57 -29 0 -29 12 1 76 42 90 123 164 216 198 70 25 200 18 270 -15z m-404 -344 c9 -14 22 -41 29 -61 l12 -36 11 31 c15 42 40 51 64 22 10 -13 18 -32 18 -42 0 -29 17 -23 25 9 7 29 32 62 48 62 25 0 -23 -207 -51 -217 -19 -8 -39 15 -55 62 l-15 40 -16 -57 c-10 -32 -21 -58 -25 -58 -40 0 -102 178 -85 244 8 33 19 33 40 1z m469 -7 c38 -55 74 -248 46 -248 -15 0 -52 52 -58 82 -6 29 -23 39 -23 13 0 -8 -9 -24 -21 -36 -25 -25 -42 -14 -60 38 l-12 36 -21 -43 c-29 -61 -46 -63 -46 -6 0 47 31 151 51 170 13 14 59 -36 59 -65 0 -27 17 -24 24 6 11 45 25 75 35 75 6 0 17 -10 26 -22z"/>
 <path d="M2828 993 c12 -2 30 -2 40 0 9 3 -1 5 -23 4 -22 0 -30 -2 -17 -4z"/>
 <path d="M2579 883 l-34 -38 38 34 c20 19 37 36 37 38 0 8 -8 0 -41 -34z"/>
 <path d="M2880 841 c0 -5 10 -7 21 -4 15 4 27 0 35 -12 8 -11 14 -14 14 -9 0 17 -23 34 -47 34 -13 0 -23 -4 -23 -9z"/>
 <path d="M2897 742 c-21 -23 -22 -33 -3 -26 8 3 25 0 38 -6 22 -11 22 -10 4 4 -11 9 -24 16 -29 16 -5 0 -4 7 3 15 18 21 6 19 -13 -3z"/>
 <path d="M1793 673 c9 -2 25 -2 35 0 9 3 1 5 -18 5 -19 0 -27 -2 -17 -5z"/>
 <path d="M2749 658 c7 -10 23 -17 35 -17 20 1 20 2 1 6 -11 3 -27 10 -35 17 -13 10 -13 9 -1 -6z"/>
 <path d="M3460 637 c-12 -20 -12 -21 2 -9 13 10 17 10 21 0 4 -9 6 -7 6 4 1 26 -14 29 -29 5z"/>
 <path d="M2363 643 c9 -2 25 -2 35 0 9 3 1 5 -18 5 -19 0 -27 -2 -17 -5z"/>
 <path d="M2923 638 c-22 -28 -24 -38 -8 -32 9 4 13 9 11 12 -3 3 -1 11 5 19 6 7 9 13 6 13 -2 0 -9 -6 -14 -12z"/>
 <path d="M2132 470 c0 -19 2 -27 5 -17 2 9 2 25 0 35 -3 9 -5 1 -5 -18z"/>
 <path d="M2863 473 c9 -2 25 -2 35 0 9 3 1 5 -18 5 -19 0 -27 -2 -17 -5z"/>
 <path d="M1918 443 c18 -2 45 -2 60 0 15 2 0 4 -33 4 -33 0 -45 -2 -27 -4z"/>
 <path d="M3863 384 c-3 -8 -1 -25 5 -37 9 -19 10 -18 5 11 -5 28 -3 32 15 32 12 0 26 -8 31 -17 6 -10 11 -13 11 -7 1 31 -56 47 -67 18z"/>
 <path d="M4195 388 c-3 -7 2 -33 10 -58 15 -42 14 -14 -1 37 -5 18 -1 22 23 26 l28 4 -28 2 c-15 0 -30 -5 -32 -11z"/>
 <path d="M2498 363 c12 -2 32 -2 45 0 12 2 2 4 -23 4 -25 0 -35 -2 -22 -4z"/>
 <path d="M3944 275 c1 -17 8 -20 56 -21 l55 0 -52 3 c-38 3 -53 8 -56 21 -3 12 -4 11 -3 -3z"/>
 <path d="M4195 260 l-30 -8 33 -1 c17 0 32 4 32 9 0 6 -1 9 -2 9 -2 -1 -16 -5 -33 -9z"/>
 <path d="M3760 243 c0 -11 3 -14 8 -7 4 6 14 14 22 17 10 4 8 6 -7 6 -16 1 -23 -5 -23 -16z"/>
 <path d="M4335 253 c37 -3 67 -11 80 -21 20 -17 20 -17 1 6 -16 19 -28 22 -80 20 l-61 -2 60 -3z"/>
 <path d="M4095 220 c3 -5 -22 -10 -62 -12 -57 -3 -68 -6 -71 -22 -2 -10 0 -22 6 -28 6 -6 8 -1 5 16 -5 25 -4 25 63 28 43 2 69 8 72 16 2 6 -1 12 -8 12 -6 0 -9 -4 -5 -10z"/>
 <path d="M3848 203 c12 -2 32 -2 45 0 12 2 2 4 -23 4 -25 0 -35 -2 -22 -4z"/>
 <path d="M4199 203 c23 -2 42 -10 44 -19 3 -9 4 -8 3 3 -1 14 -11 18 -44 19 l-42 1 39 -4z"/>
 <path d="M4297 203 c-3 -5 18 -7 46 -5 86 5 96 9 25 11 -37 0 -69 -2 -71 -6z"/>
 <path d="M3931 102 c-1 -20 18 -52 32 -52 9 0 9 2 0 8 -7 4 -16 19 -22 32 -5 14 -10 19 -10 12z"/>
 </g>
<g id="layer104" fill="#84817f" stroke="none">
 <path d="M700 990 c-172 -32 -303 -144 -362 -309 -28 -77 -28 -215 0 -292 70 -195 233 -311 437 -311 204 0 367 116 437 311 28 77 28 215 0 292 -49 139 -153 243 -287 289 -65 22 -165 31 -225 20z m230 -141 c93 -44 190 -164 190 -234 0 -22 -4 -25 -32 -25 -41 0 -122 36 -113 50 3 5 14 10 24 10 28 0 32 11 13 42 -61 103 -231 151 -350 99 -51 -23 -152 -118 -152 -144 0 -20 -43 -57 -67 -57 -29 0 -29 12 1 76 42 90 123 164 216 198 70 25 200 18 270 -15z m-404 -344 c9 -14 22 -41 29 -61 l12 -36 11 31 c15 42 40 51 64 22 10 -13 18 -32 18 -42 0 -29 17 -23 25 9 7 29 32 62 48 62 25 0 -23 -207 -51 -217 -19 -8 -39 15 -55 62 l-15 40 -16 -57 c-10 -32 -21 -58 -25 -58 -40 0 -102 178 -85 244 8 33 19 33 40 1z m469 -7 c38 -55 74 -248 46 -248 -15 0 -52 52 -58 82 -6 29 -23 39 -23 13 0 -8 -9 -24 -21 -36 -25 -25 -42 -14 -60 38 l-12 36 -21 -43 c-29 -61 -46 -63 -46 -6 0 47 31 151 51 170 13 14 59 -36 59 -65 0 -27 17 -24 24 6 11 45 25 75 35 75 6 0 17 -10 26 -22z"/>
 <path d="M2579 883 l-34 -38 38 34 c20 19 37 36 37 38 0 8 -8 0 -41 -34z"/>
 <path d="M2363 643 c9 -2 25 -2 35 0 9 3 1 5 -18 5 -19 0 -27 -2 -17 -5z"/>
 <path d="M1908 443 c12 -2 30 -2 40 0 9 3 -1 5 -23 4 -22 0 -30 -2 -17 -4z"/>
 <path d="M2498 363 c12 -2 32 -2 45 0 12 2 2 4 -23 4 -25 0 -35 -2 -22 -4z"/>
 <path d="M4293 253 c9 -2 25 -2 35 0 9 3 1 5 -18 5 -19 0 -27 -2 -17 -5z"/>
 <path d="M4033 203 c9 -2 25 -2 35 0 9 3 1 5 -18 5 -19 0 -27 -2 -17 -5z"/>
 </g>
<g id="layer105" fill="#b5b0ac" stroke="none">
 <path d="M700 990 c-172 -32 -303 -144 -362 -309 -28 -77 -28 -215 0 -292 70 -195 233 -311 437 -311 204 0 367 116 437 311 28 77 28 215 0 292 -49 139 -153 243 -287 289 -65 22 -165 31 -225 20z m230 -141 c93 -44 190 -164 190 -234 0 -22 -4 -25 -32 -25 -41 0 -122 36 -113 50 3 5 14 10 24 10 28 0 32 11 13 42 -61 103 -231 151 -350 99 -51 -23 -152 -118 -152 -144 0 -20 -43 -57 -67 -57 -29 0 -29 12 1 76 42 90 123 164 216 198 70 25 200 18 270 -15z m-404 -344 c9 -14 22 -41 29 -61 l12 -36 11 31 c15 42 40 51 64 22 10 -13 18 -32 18 -42 0 -29 17 -23 25 9 7 29 32 62 48 62 25 0 -23 -207 -51 -217 -19 -8 -39 15 -55 62 l-15 40 -16 -57 c-10 -32 -21 -58 -25 -58 -40 0 -102 178 -85 244 8 33 19 33 40 1z m469 -7 c38 -55 74 -248 46 -248 -15 0 -52 52 -58 82 -6 29 -23 39 -23 13 0 -8 -9 -24 -21 -36 -25 -25 -42 -14 -60 38 l-12 36 -21 -43 c-29 -61 -46 -63 -46 -6 0 47 31 151 51 170 13 14 59 -36 59 -65 0 -27 17 -24 24 6 11 45 25 75 35 75 6 0 17 -10 26 -22z"/>
 <path d="M2579 883 l-34 -38 38 34 c20 19 37 36 37 38 0 8 -8 0 -41 -34z"/>
 <path d="M2363 643 c9 -2 25 -2 35 0 9 3 1 5 -18 5 -19 0 -27 -2 -17 -5z"/>
 <path d="M1908 443 c12 -2 30 -2 40 0 9 3 -1 5 -23 4 -22 0 -30 -2 -17 -4z"/>
 <path d="M2498 363 c12 -2 32 -2 45 0 12 2 2 4 -23 4 -25 0 -35 -2 -22 -4z"/>
 </g>
<g id="layer106" fill="#fdf106" stroke="none">
 <path d="M700 990 c-172 -32 -303 -144 -362 -309 -28 -77 -28 -215 0 -292 70 -195 233 -311 437 -311 204 0 367 116 437 311 28 77 28 215 0 292 -49 139 -153 243 -287 289 -65 22 -165 31 -225 20z m230 -141 c93 -44 190 -164 190 -234 0 -22 -4 -25 -32 -25 -41 0 -122 36 -113 50 3 5 14 10 24 10 28 0 32 11 13 42 -61 103 -231 151 -350 99 -51 -23 -152 -118 -152 -144 0 -20 -43 -57 -67 -57 -29 0 -29 12 1 76 42 90 123 164 216 198 70 25 200 18 270 -15z m-404 -344 c9 -14 22 -41 29 -61 l12 -36 11 31 c15 42 40 51 64 22 10 -13 18 -32 18 -42 0 -29 17 -23 25 9 7 29 32 62 48 62 25 0 -23 -207 -51 -217 -19 -8 -39 15 -55 62 l-15 40 -16 -57 c-10 -32 -21 -58 -25 -58 -40 0 -102 178 -85 244 8 33 19 33 40 1z m469 -7 c38 -55 74 -248 46 -248 -15 0 -52 52 -58 82 -6 29 -23 39 -23 13 0 -8 -9 -24 -21 -36 -25 -25 -42 -14 -60 38 l-12 36 -21 -43 c-29 -61 -46 -63 -46 -6 0 47 31 151 51 170 13 14 59 -36 59 -65 0 -27 17 -24 24 6 11 45 25 75 35 75 6 0 17 -10 26 -22z"/>
 </g>
<g id="layer107" fill="#cec8c4" stroke="none">
 </g>

</svg>